<svg data-v-0dd9719b="" version="1.0" xmlns="http://www.w3.org/2000/svg" xmlns:xlink="http://www.w3.org/1999/xlink" width="100%" height="100%" viewBox="0 0 340.000000 250.000000" preserveAspectRatio="xMidYMid meet" color-interpolation-filters="sRGB" style="margin: auto;"> <rect data-v-0dd9719b="" x="0" y="0" width="100%" height="100%" fill="#ffffff" fill-opacity="1" class="background"/> <rect data-v-0dd9719b="" x="0" y="0" width="100%" height="100%" fill="url(#watermark)" fill-opacity="1" class="watermarklayer"/> <g data-v-0dd9719b="" fill="#34435c" class="pmspacesvg" transform="translate(36.71778869628906,87.4380111694336)"><!----> <g><g mask="url(#37c725cc-3556-42c7-9348-a7725145e63c)" transform="translate(0,0)"><g><rect data-gra="graph-name" fill="#FFCC66" x="0" y="46.64175844192505" width="266.5644226074219" height="13.326216697692871"/></g> <g data-gra="path-name" fill-rule="" class="tp-name" fill="#34435c" transform="translate(0,0)"><g transform="scale(1)"><g><path d="M6.32-13.92C6-13.84 5.12-13.28 4.88-13.28 3.92-13.2 3.92-14 4.24-14.96 6.56-22.32 9.76-17.28 11.92-18.64 12.96-19.28 12.96-22.64 12.16-23.44 9.92-25.92 2.32-21.92 0.96-19.28-1.84-13.84 1.6-13.6 2.64-11.76 1.6-11.04 0.24-9.68-0.56-8.88-2.08-7.36-3.12-5.76-4.48-4.16-5.68-2.72-7.28 1.44-7.2 3.12-7.12 4.4-5.36 8.16-2.96 8.48 0.64 8.96 13.28-3.44 7.28-11.68 8.8-12.96 16.48-14.72 18.32-14.8 18.64-14.8 18.72-15.84 18.88-16.08 15.12-15.92 11.28-15.68 6.32-13.92ZM-0.88 3.84C0.08 2.8 1.36 1.44 2.72-0.16 1.92 2.4 0.56 3.68-0.88 3.84ZM5.04-7.44C4.08-5.76 3.04-4.16 2-2.56 1.28-1.44 0.48-0.48-0.32 0.56-0.88 1.2-2.32 4.08-3.28 3.6-3.68 0.24 1.28-7.52 4.88-9.68 5.84-8.96 5.44-8.16 5.04-7.44ZM35.28-20.24C34.72-22.32 31.92-22.88 29.6-23.44 24.96-24.64 24-18.24 22.72-14.72 22.72-15.04 22.72-15.28 22.64-15.6L23.6-20.64 23.52-21.36C22.56-22.88 18.16-27.52 17.76-22.24 16.56-16.24 16.96-12.48 15.28-4.56 15.28-4.48 14.48 2.16 14.48 2.24L14.4 2.72C14.32 2.96 14.24 3.2 14.24 3.36 13.04 8.24 12.56 12 11.84 13.36 11.76 13.36 11.6 13.28 11.44 13.12 10.88 12.48 8.32 9.76 5.6 11.92L5.36 12.24C5.12 12.64 5.12 13.52 5.44 13.68 6.16 13.68 6.08 12.24 7.68 13.12 10.72 14.96 9.28 15.2 11.76 16.8 12.48 16.8 13.28 16.56 14.08 15.76 17.12 13.04 19.44 4.8 21.2-3.04L22-2.8C30.8 0.48 37.84-11.44 35.28-20.24ZM28.4-9.52C27.68-8.8 27.84-8.4 27.12-7.68 26.64-7.12 25.44-6.16 24.8-5.84 24.56-5.68 22.4-5.6 21.92-5.68L22.16-6.64C23.84-10.48 24.88-14.56 26.56-18.4 26.72-18.88 27.92-20.32 28-20.72 28-21.6 29.76-20.48 30.24-20.16 30.56-19.84 30.96-19.44 30.96-19.04 31.12-15.76 31.04-12.4 28.4-9.52ZM15.44 10.32C15.28 10.4 15.12 10.24 15.44 9.76 16.32 8.24 15.84 7.12 16.32 4.4L16.96 4.56C16.32 7.92 16.4 9.92 15.44 10.32ZM23.76-14.96C24.64-16.64 24.4-16.64 25.04-18.48 25.04-18.56 25.12-18.56 25.12-18.64L25.44-18.64C25.44-18.56 25.52-18.4 25.44-18.32 25.44-18.24 25.36-18.16 25.36-18.08 25.36-18 25.28-17.84 25.2-17.36 24.96-16.48 24.56-15.6 24.32-14.88L23.92-14.56C23.84-14.72 23.68-14.88 23.76-14.96ZM9.68 13.92C9.52 13.44 9.28 13.04 8.96 12.64 8.96 12.56 9.04 12.32 9.04 12.16 9.2 12.24 9.2 12.48 9.28 12.56 9.6 12.96 9.76 13.36 9.92 13.68ZM18.64-8C18.64-8.08 18.64-8.16 18.72-8.24 18.8-8.72 18.96-8.4 19.04-8ZM56.4-17.44C55.04-16 53.84-14.48 52.64-12.88L48.8-8.24C39.52 3.76 40.56-0.96 43.92-12.64 44.96-16.4 47.12-17.84 43.52-19.28 40.16-20.56 39.44-19.12 38.72-16.4 37.36-11.36 35.52-4.4 38.4 0.32 40 2.8 42.96 1.6 45.28-0.64 49.68-4.72 55.76-14.56 57.04-16.72 57.28-17.2 57.44-16.96 56.4-17.44ZM44.96-22.16C45.84-23.84 46.4-24.24 47.36-25.68 48.72-27.76 47.84-29.44 45.6-29.68L45.2-29.6C44-29.12 43.6-23.28 43.52-22 43.44-20.72 44.56-21.44 44.96-22.16ZM41.12-13.76C40.96-12.8 38.8-8.08 39.36-4.96 39.52-4.48 39.28-4.4 39.2-4.48 37.84-5.52 39.76-11.68 40.32-12.96 40.48-13.28 41.2-14.48 41.12-13.76ZM76.56-16.88C72.64-13.68 70.56-10.4 67.44-7.36 49.36 10.32 57.68-17.76 65.6-20.48 65.84-20.16 66-19.76 66.16-19.44L66.8-19.44C67.6-19.04 68.4-19.04 68.88-19.84 69.36-20.64 69.2-21.52 68.72-22.48 65.2-29.44 59.12-23.84 56.8-20.16 53.84-15.52 53.2-11.92 53.84-5.92 54.32-1.04 57.76 3.6 62.88-0.24 67.68-3.84 75.44-14.24 77.04-16 77.44-16.48 77.52-16.24 76.56-16.88ZM59.2-20.88C58.72-19.6 57.52-18.56 57.04-17.36 56.88-18.88 58.72-20.8 59.2-20.88ZM98.64-17.12L97.92-16.56C94-12.88 90.96-9.36 86.08-5.84 84.8-4.48 82.72-4.08 81.04-3.6 78.56-2.88 76.24-3.12 76.4-6.56 76.48-6.96 76.32-7.28 76.4-7.68 76.64-8.8 76.48-10.16 77.28-11.2L78.8-10.8C82.72-9.6 93.12-21.2 86.24-25.6 84.08-26.96 81.92-26.88 80.16-25.04 79.36-24.24 78.56-23.28 78-22.24 76.8-20.16 75.76-18 74.64-15.84L73.76-12.4C73.76-12.08 73.76-11.68 73.68-11.36 73.28-9.12 73.44-6.96 74-4.72 75.04-1.28 78.8 1.76 83.28 0.16 85.28-0.56 86.88-1.84 88.32-3.28 90.72-5.6 92.88-8.32 95.04-10.96 96.24-12.4 97.68-13.84 98.72-15.36 99.12-15.92 99.2-16.16 99.28-16.32 99.44-16.48 99.28-16.64 98.64-17.12ZM84.24-23.2C84.4-20.56 81.52-16.48 78.56-15.36 79.6-18.32 82.32-22.08 84.24-23.2ZM88.08-4.8C91.12-8.08 93.12-10.96 96.4-14.24 93.44-10.88 91.76-7.44 88.08-4.8ZM138.4-17.2C135.12-13.68 131.76-5.92 128.16-2.4 125.92-0.24 125.28-1.12 125.36-3.36 125.52-8.16 129.2-19.04 129.28-19.28 129.44-19.92 128.4-20.4 127.68-20.88 124.56-22.64 123.6-20.72 122.88-18L122.8-17.76C122.16-18.08 121.52-18.64 121.04-19.04 118.64-21.12 113.44-21.76 112-19.44L111.2-18.24C108.64-14.64 106.56-11.68 107.04-6.48 107.28-4.16 108.56-2.4 110.56-0.96 111.36-0.4 112.48-0.16 113.44 0 115.52 0.4 119.12-8.4 120.24-9.92 120.32-9.92 120.48-10.24 120.8-10.72 120.08-7.52 119.92-4.24 121.52-1.6 123.12 0.96 126.64 2.64 128.96 0.48 133.28-3.6 137.76-14.24 139.04-16.4 139.28-16.88 139.44-16.64 138.4-17.2ZM112.08-5.68C111.84-5.28 111.6-4.88 111.52-4.48 111.36-3.6 110.88-4.08 110.56-4.56 110.24-4.96 110-5.52 110.08-5.92 110.4-9.36 111.04-12.64 114-14.56 114.72-15.12 115.2-15.92 116-16.4 116.48-16.8 117.2-16.88 117.92-17.04 118.16-17.04 118.48-16.72 118.96-16.48 118.8-16.16 118.72-15.84 118.56-15.68ZM120.48-14.16C119.36-12.8 117.92-9.84 117.04-8.16 116.96-8.16 116.96-8.08 116.88-8.08 116.8-8.08 116.64-8.16 116.64-8.24 116.56-8.32 116.56-8.48 116.64-8.56 117.28-9.36 118.08-10.72 118.72-12.24 119.04-13.12 119.52-13.84 119.92-14.4 120-14.56 120.24-14.56 120.32-14.64 120.4-14.48 120.48-14.24 120.48-14.16ZM163.68-16.64C160.8-11.6 154.8-1.52 153.68-2.08 152.48-2.64 153.44-5.84 154.8-13.68 155.6-18.56 158.16-20.08 155.2-21.2 151.84-22.4 151.12-20.96 150.24-17.84 149.6-15.6 149.76-15.76 148.72-13.6 145.84-8.56 142.64-2.96 141.52-3.52 140.32-4.16 140.4-4.96 141.76-12.72 142.56-17.68 145.12-19.12 142.16-20.24 138.8-21.52 138.08-20.08 137.2-16.88 135.6-11.04 134.72-6.72 137.36-1.2 138.24 0.56 139.6 0.72 141.04 0.16 144.64-1.36 146.88-6.24 149.28-11.36 148.88-7.44 148.96-3.68 150.16-1.2 151.04 0.56 152.4 0.72 153.84 0.16 158.08-1.6 161.12-10.08 164.48-16.4 164.4-17.04 164.4-17.28 163.68-16.64ZM139.92-14.16C139.68-13.04 138.24-11.04 138.64-7.36 138.72-6.8 138.48-6.72 138.4-6.8 137.12-8.08 138.32-11.68 139.04-13.2 139.2-13.6 140-14.96 139.92-14.16ZM185.04-16.88C181.12-13.68 179.04-10.4 175.92-7.36 157.84 10.32 166.16-17.76 174.08-20.48 174.32-20.16 174.48-19.76 174.64-19.44L175.28-19.44C176.08-19.04 176.88-19.04 177.36-19.84 177.84-20.64 177.68-21.52 177.2-22.48 173.68-29.44 167.6-23.84 165.28-20.16 162.32-15.52 161.68-11.92 162.32-5.92 162.8-1.04 166.24 3.6 171.36-0.24 176.16-3.84 183.92-14.24 185.52-16 185.92-16.48 186-16.24 185.04-16.88ZM167.68-20.88C167.2-19.6 166-18.56 165.52-17.36 165.36-18.88 167.2-20.8 167.68-20.88ZM199.28-16.48C196.24-12.96 193.12-5.28 189.68-1.68 187.6 0.48 186.88-0.4 186.88-2.64 186.8-7.12 189.76-18.24 191.92-26.24L192.56-26.08C196.08-25.36 200.24-24.72 202.24-25.84 202-26.56 201.12-28.48 200.8-28.08 200.24-27.36 196.48-27.84 192.48-28.56 193.04-30.56 193.44-32.16 193.68-33.36 194.24-35.68 192.72-36 190-36.48 189.28-36.64 188.08-36 187.92-35.36 187.6-33.92 187.04-32 186.4-29.76 183.52-30.32 175.92-31.2 177.52-25.76L177.76-25.28C178-24.8 178.8-24.16 178.96-24.4 179.12-25.12 177.92-26 179.04-26.88 180.8-28.24 182.08-28.08 185.76-27.44 184.96-24.48 184.08-20.96 183.28-17.28L182.56-12.72C182.24-10.56 181.84-7.36 182.08-4.64 182.56 0.48 184.4 2.72 186 2.96 190.72 3.84 198-12.16 200-15.68 200.24-16.16 200.32-15.92 199.28-16.48ZM193.28-27.36L199.28-26.56C197.36-26.72 192.16-27.28 192.16-27.28 192.08-27.28 192.08-27.28 192-27.36 192.08-27.52 193.12-27.28 193.28-27.36ZM216.16-17.44C214.8-16 213.6-14.48 212.4-12.88L208.56-8.24C199.28 3.76 200.32-0.96 203.68-12.64 204.72-16.4 206.88-17.84 203.28-19.28 199.92-20.56 199.2-19.12 198.48-16.4 197.12-11.36 195.28-4.4 198.16 0.32 199.76 2.8 202.72 1.6 205.04-0.64 209.44-4.72 215.52-14.56 216.8-16.72 217.04-17.2 217.2-16.96 216.16-17.44ZM204.72-22.16C205.6-23.84 206.16-24.24 207.12-25.68 208.48-27.76 207.6-29.44 205.36-29.68L204.96-29.6C203.76-29.12 203.36-23.28 203.28-22 203.2-20.72 204.32-21.44 204.72-22.16ZM200.88-13.76C200.72-12.8 198.56-8.08 199.12-4.96 199.28-4.48 199.04-4.4 198.96-4.48 197.6-5.52 199.52-11.68 200.08-12.96 200.24-13.28 200.96-14.48 200.88-13.76ZM251.84-0.64C252.4-5.44 253.6-8.56 255.12-12.88 256.4-16.48 259.44-21.92 259.36-25.76 259.36-28.32 256.88-30.24 254.48-30.08 251.44-29.76 245.12-21.2 243.28-18.64 242.8-17.92 242.16-16.32 241.28-16.56 249.36-36.56 229.28-22.08 225.84-21.92 224.08-21.84 224-21.6 224.32-22.4 224.96-24.24 220.88-27.44 217.68-22.96 214.4-18.24 212.64-12.24 213.68-6 214.24-3.2 217.12 2.16 220.64 0.96 225.2-1.04 227.6-6.56 228.72-11.2 229.44-14.16 229.68-15.44 228.64-18.56 230.96-19.92 232.56-20.4 235.04-21.36 236.96-22.08 237.6-22.72 236.48-20.96 234.48-17.52 233.92-13.36 233.12-9.44 232.08-4.08 234.64-1.84 238.8-5.36 239.04-5.6 240.32-7.28 240.32-7.28 241.84-9.36 243.44-11.36 245.04-13.44 247.2-16.32 248.96-19.44 251.12-22.24 252.8-24.56 252.08-23.28 251.68-21.6 250.16-15.52 247.6-7.84 247.76-1.44 248 1.52 249.04 4.24 252.08 5.92 254.08 7.04 256.64 3.76 255.12 2.24 252.24 4.08 251.68 1.36 251.84-0.64ZM219.12-3.04C218-1.36 216.88-2.8 216.8-3.92 216.8-4.72 216.72-5.44 216.8-6.16 216.88-10.8 219.68-17.92 223.04-20.8 224.48-19.76 224.88-18.72 224.96-17.04 225.2-11.68 221.68-7.04 219.12-3.04ZM223.04-4.48L222.88-4.56C223.2-5.76 224.32-8.32 224.88-9.52 226.32-12.8 226.24-13.2 226.88-16.64 227.12-17.68 226.8-17.84 227.44-17.68 229.68-17.12 224.32-5.36 223.04-4.48ZM244.64-16C243.76-14.8 241.36-10.8 240.32-10.24 239.68-9.92 242.08-13.04 242.24-13.2 249.28-22.96 257.28-33.04 244.64-16ZM249.28-3.12L249.2-2.72C249.28-5.2 250.16-10 250.88-12.4 251.52-14.56 253.76-21.12 252.08-15.04 250.88-10.88 250.16-7.44 249.28-3.12ZM234.72-8.64L234.4-8.88 235.28-12C235.36-12.32 235.44-13.2 235.6-13.36 236.24-12.64 234.96-9.44 234.72-8.64Z" transform="translate(7.202885627746582, 36.50486755371094)"/></g> <!----> <!----> <!----> <!----> <!----> <!----> <!----></g></g></g> <g data-gra="path-slogan" fill-rule="" class="tp-slogan" fill="#34435c" transform="translate(5,66.96797561645508)"><rect x="0" height="1" y="3.580000400543213" width="96.35221099853516"/> <rect height="1" y="3.580000400543213" width="96.35221099853516" x="160.21221160888672"/> <g transform="translate(99.35221099853516,0)"><g transform="scale(1)"><path d="M0.62-3.94L0.62-3.94Q0.62-4.88 0.89-5.64Q1.15-6.40 1.62-6.92Q2.09-7.45 2.73-7.73Q3.37-8.02 4.13-8.02L4.13-8.02Q4.85-8.02 5.39-7.72Q5.93-7.43 6.28-7.04L6.28-7.04L5.71-6.41Q5.40-6.74 5.02-6.94Q4.64-7.14 4.14-7.14L4.14-7.14Q3.58-7.14 3.12-6.92Q2.66-6.70 2.34-6.28Q2.02-5.87 1.84-5.28Q1.66-4.69 1.66-3.96L1.66-3.96Q1.66-3.22 1.83-2.62Q2.00-2.03 2.32-1.61Q2.63-1.19 3.08-0.96Q3.53-0.73 4.09-0.73L4.09-0.73Q4.67-0.73 5.09-0.96Q5.52-1.19 5.90-1.61L5.90-1.61L6.47-1.00Q6-0.46 5.41-0.16Q4.82 0.14 4.07 0.14L4.07 0.14Q3.32 0.14 2.69-0.13Q2.06-0.41 1.60-0.93Q1.14-1.45 0.88-2.21Q0.62-2.98 0.62-3.94ZM8.92-3.20L11.28-3.20L10.91-4.40Q10.69-5.06 10.50-5.72Q10.31-6.37 10.12-7.06L10.12-7.06L10.07-7.06Q9.89-6.37 9.70-5.72Q9.50-5.06 9.29-4.40L9.29-4.40L8.92-3.20ZM12.28 0L11.53-2.40L8.66-2.40L7.91 0L6.89 0L9.55-7.87L10.68-7.87L13.34 0L12.28 0ZM15.46-7.07L15.46-4.14L16.78-4.14Q17.70-4.14 18.19-4.52Q18.68-4.90 18.68-5.66L18.68-5.66Q18.68-6.44 18.19-6.76Q17.70-7.07 16.78-7.07L16.78-7.07L15.46-7.07ZM19.91 0L18.78 0L16.88-3.32L15.46-3.32L15.46 0L14.46 0L14.46-7.87L16.92-7.87Q17.52-7.87 18.03-7.76Q18.54-7.64 18.91-7.38Q19.27-7.12 19.48-6.70Q19.68-6.28 19.68-5.66L19.68-5.66Q19.68-4.74 19.20-4.19Q18.72-3.64 17.92-3.43L17.92-3.43L19.91 0ZM21.43 0L21.43-7.87L23.40-7.87Q25.22-7.87 26.17-6.86Q27.12-5.86 27.12-3.97L27.12-3.97Q27.12-3.04 26.88-2.30Q26.64-1.56 26.17-1.05Q25.70-0.54 25.02-0.27Q24.34 0 23.45 0L23.45 0L21.43 0ZM22.43-0.82L23.33-0.82Q24.71-0.82 25.40-1.64Q26.09-2.47 26.09-3.97L26.09-3.97Q26.09-5.47 25.40-6.26Q24.71-7.06 23.33-7.06L23.33-7.06L22.43-7.06L22.43-0.82ZM29.68-3.20L32.04-3.20L31.67-4.40Q31.45-5.06 31.26-5.72Q31.07-6.37 30.88-7.06L30.88-7.06L30.83-7.06Q30.65-6.37 30.46-5.72Q30.26-5.06 30.05-4.40L30.05-4.40L29.68-3.20ZM33.04 0L32.29-2.40L29.42-2.40L28.67 0L27.65 0L30.31-7.87L31.44-7.87L34.10 0L33.04 0ZM35.22 0L35.22-7.87L36.40-7.87L37.92-3.65L38.50-2.04L38.54-2.04L39.10-3.65L40.61-7.87L41.78-7.87L41.78 0L40.84 0L40.84-4.33Q40.84-4.86 40.88-5.50Q40.92-6.13 40.97-6.66L40.97-6.66L40.92-6.66L40.28-4.91L38.77-0.79L38.21-0.79L36.68-4.91L36.06-6.66L36.01-6.66Q36.05-6.13 36.10-5.50Q36.14-4.86 36.14-4.33L36.14-4.33L36.14 0L35.22 0ZM46.85 0.14L46.85 0.14Q46.10 0.14 45.49-0.14Q44.87-0.43 44.42-0.97Q43.98-1.50 43.73-2.26Q43.49-3.02 43.49-3.97L43.49-3.97Q43.49-4.92 43.73-5.67Q43.98-6.42 44.42-6.94Q44.87-7.46 45.49-7.74Q46.10-8.02 46.85-8.02L46.85-8.02Q47.59-8.02 48.21-7.73Q48.83-7.45 49.28-6.93Q49.73-6.41 49.97-5.66Q50.22-4.91 50.22-3.97L50.22-3.97Q50.22-3.02 49.97-2.26Q49.73-1.50 49.28-0.97Q48.83-0.43 48.21-0.14Q47.59 0.14 46.85 0.14ZM46.85-0.73L46.85-0.73Q47.38-0.73 47.80-0.96Q48.23-1.19 48.53-1.61Q48.84-2.04 49.01-2.63Q49.18-3.23 49.18-3.97L49.18-3.97Q49.18-4.70 49.01-5.29Q48.84-5.88 48.53-6.29Q48.23-6.70 47.80-6.92Q47.38-7.14 46.85-7.14L46.85-7.14Q46.32-7.14 45.89-6.92Q45.47-6.70 45.16-6.29Q44.86-5.88 44.69-5.29Q44.52-4.70 44.52-3.97L44.52-3.97Q44.52-3.23 44.69-2.63Q44.86-2.04 45.16-1.61Q45.47-1.19 45.89-0.96Q46.32-0.73 46.85-0.73ZM51.91 0L51.91-7.87L53.09-7.87L54.61-3.65L55.19-2.04L55.24-2.04L55.79-3.65L57.30-7.87L58.48-7.87L58.48 0L57.53 0L57.53-4.33Q57.53-4.86 57.57-5.50Q57.61-6.13 57.66-6.66L57.66-6.66L57.61-6.66L56.98-4.91L55.46-0.79L54.90-0.79L53.38-4.91L52.75-6.66L52.70-6.66Q52.74-6.13 52.79-5.50Q52.84-4.86 52.84-4.33L52.84-4.33L52.84 0L51.91 0Z" transform="translate(-0.624, 8.016)"/></g></g></g></g></g><mask id="37c725cc-3556-42c7-9348-a7725145e63c"><g><g fill="#fff"><rect data-gra="graph-name" x="0" y="46.64175844192505" width="266.5644226074219" height="13.326216697692871"/></g> <g data-gra="path-name" fill-rule="" class="tp-name" transform="translate(0,0)" stroke="#000" stroke-width="3" fill="#000"><g transform="scale(1)"><g><path d="M6.32-13.92C6-13.84 5.12-13.28 4.88-13.28 3.92-13.2 3.92-14 4.24-14.96 6.56-22.32 9.76-17.28 11.92-18.64 12.96-19.28 12.96-22.64 12.16-23.44 9.92-25.92 2.32-21.92 0.96-19.28-1.84-13.84 1.6-13.6 2.64-11.76 1.6-11.04 0.24-9.68-0.56-8.88-2.08-7.36-3.12-5.76-4.48-4.16-5.68-2.72-7.28 1.44-7.2 3.12-7.12 4.4-5.36 8.16-2.96 8.48 0.64 8.96 13.28-3.44 7.28-11.68 8.8-12.96 16.48-14.72 18.32-14.8 18.64-14.8 18.72-15.84 18.88-16.08 15.12-15.92 11.28-15.68 6.32-13.92ZM-0.88 3.84C0.08 2.8 1.36 1.44 2.72-0.16 1.92 2.4 0.56 3.68-0.88 3.84ZM5.04-7.44C4.08-5.76 3.04-4.16 2-2.56 1.28-1.44 0.48-0.48-0.32 0.56-0.88 1.2-2.32 4.08-3.28 3.6-3.68 0.24 1.28-7.52 4.88-9.68 5.84-8.96 5.44-8.16 5.04-7.44ZM35.28-20.24C34.72-22.32 31.92-22.88 29.6-23.44 24.96-24.64 24-18.24 22.72-14.72 22.72-15.04 22.72-15.28 22.64-15.6L23.6-20.64 23.52-21.36C22.56-22.88 18.16-27.52 17.76-22.24 16.56-16.24 16.96-12.48 15.28-4.56 15.28-4.48 14.48 2.16 14.48 2.24L14.4 2.72C14.32 2.96 14.24 3.2 14.24 3.36 13.04 8.24 12.56 12 11.84 13.36 11.76 13.36 11.6 13.28 11.44 13.12 10.88 12.48 8.32 9.76 5.6 11.92L5.36 12.24C5.12 12.64 5.12 13.52 5.44 13.68 6.16 13.68 6.08 12.24 7.68 13.12 10.72 14.96 9.28 15.2 11.76 16.8 12.48 16.8 13.28 16.56 14.08 15.76 17.12 13.04 19.44 4.8 21.2-3.04L22-2.8C30.8 0.48 37.84-11.44 35.28-20.24ZM28.4-9.52C27.68-8.8 27.84-8.4 27.12-7.68 26.64-7.12 25.44-6.16 24.8-5.84 24.56-5.68 22.4-5.6 21.92-5.68L22.16-6.64C23.84-10.48 24.88-14.56 26.56-18.4 26.72-18.88 27.92-20.32 28-20.72 28-21.6 29.76-20.48 30.24-20.16 30.56-19.84 30.96-19.44 30.96-19.04 31.12-15.76 31.04-12.4 28.4-9.52ZM15.44 10.32C15.28 10.4 15.12 10.24 15.44 9.76 16.32 8.24 15.84 7.12 16.32 4.4L16.96 4.56C16.32 7.92 16.4 9.92 15.44 10.32ZM23.76-14.96C24.64-16.64 24.4-16.64 25.04-18.48 25.04-18.56 25.12-18.56 25.12-18.64L25.44-18.64C25.44-18.56 25.52-18.4 25.44-18.32 25.44-18.24 25.36-18.16 25.36-18.08 25.36-18 25.28-17.84 25.2-17.36 24.96-16.48 24.56-15.6 24.32-14.88L23.92-14.56C23.84-14.72 23.68-14.88 23.76-14.96ZM9.68 13.92C9.52 13.44 9.28 13.04 8.96 12.64 8.96 12.56 9.04 12.32 9.04 12.16 9.2 12.24 9.2 12.48 9.28 12.56 9.6 12.96 9.76 13.36 9.92 13.68ZM18.64-8C18.64-8.08 18.64-8.16 18.72-8.24 18.8-8.72 18.96-8.4 19.04-8ZM56.4-17.44C55.04-16 53.84-14.48 52.64-12.88L48.8-8.24C39.52 3.76 40.56-0.96 43.92-12.64 44.96-16.4 47.12-17.84 43.52-19.28 40.16-20.56 39.44-19.12 38.72-16.4 37.36-11.36 35.52-4.4 38.4 0.32 40 2.8 42.96 1.6 45.28-0.64 49.68-4.72 55.76-14.56 57.04-16.72 57.28-17.2 57.44-16.96 56.4-17.44ZM44.96-22.16C45.84-23.84 46.4-24.24 47.36-25.68 48.72-27.76 47.84-29.44 45.6-29.68L45.2-29.6C44-29.12 43.6-23.28 43.52-22 43.44-20.72 44.56-21.44 44.96-22.16ZM41.12-13.76C40.96-12.8 38.8-8.08 39.36-4.96 39.52-4.48 39.28-4.4 39.2-4.48 37.84-5.52 39.76-11.68 40.32-12.96 40.48-13.28 41.2-14.48 41.12-13.76ZM76.56-16.88C72.64-13.68 70.56-10.4 67.44-7.36 49.36 10.32 57.68-17.76 65.6-20.48 65.84-20.16 66-19.76 66.16-19.44L66.8-19.44C67.6-19.04 68.4-19.04 68.88-19.84 69.36-20.64 69.2-21.52 68.72-22.48 65.2-29.44 59.12-23.84 56.8-20.16 53.84-15.52 53.2-11.92 53.84-5.92 54.32-1.04 57.76 3.6 62.88-0.24 67.68-3.84 75.44-14.24 77.04-16 77.44-16.48 77.52-16.24 76.56-16.88ZM59.2-20.88C58.72-19.6 57.52-18.56 57.04-17.36 56.88-18.88 58.72-20.8 59.2-20.88ZM98.64-17.12L97.92-16.56C94-12.88 90.96-9.36 86.08-5.84 84.8-4.48 82.72-4.08 81.04-3.6 78.56-2.88 76.24-3.12 76.4-6.56 76.48-6.96 76.32-7.28 76.4-7.68 76.64-8.8 76.48-10.16 77.28-11.2L78.8-10.8C82.72-9.6 93.12-21.2 86.24-25.6 84.08-26.96 81.92-26.88 80.16-25.04 79.36-24.24 78.56-23.28 78-22.24 76.8-20.16 75.76-18 74.64-15.84L73.76-12.4C73.76-12.08 73.76-11.68 73.68-11.36 73.28-9.12 73.44-6.96 74-4.72 75.04-1.28 78.8 1.76 83.28 0.16 85.28-0.56 86.88-1.84 88.32-3.28 90.72-5.6 92.88-8.32 95.04-10.96 96.24-12.4 97.68-13.84 98.72-15.36 99.12-15.92 99.2-16.16 99.28-16.32 99.44-16.48 99.28-16.64 98.64-17.12ZM84.24-23.2C84.4-20.56 81.52-16.48 78.56-15.36 79.6-18.32 82.32-22.08 84.24-23.2ZM88.08-4.8C91.12-8.08 93.12-10.96 96.4-14.24 93.44-10.88 91.76-7.44 88.08-4.8ZM138.4-17.2C135.12-13.68 131.76-5.92 128.16-2.4 125.92-0.24 125.28-1.12 125.36-3.36 125.52-8.16 129.2-19.04 129.28-19.28 129.44-19.92 128.4-20.4 127.68-20.88 124.56-22.64 123.6-20.72 122.88-18L122.8-17.76C122.16-18.08 121.52-18.64 121.04-19.04 118.64-21.12 113.44-21.76 112-19.44L111.2-18.24C108.64-14.64 106.56-11.68 107.04-6.48 107.28-4.16 108.56-2.4 110.56-0.96 111.36-0.4 112.48-0.16 113.44 0 115.52 0.4 119.12-8.4 120.24-9.92 120.32-9.92 120.48-10.24 120.8-10.72 120.08-7.52 119.92-4.24 121.52-1.6 123.12 0.96 126.64 2.64 128.96 0.48 133.28-3.6 137.76-14.24 139.04-16.4 139.28-16.88 139.44-16.64 138.4-17.2ZM112.08-5.68C111.84-5.28 111.6-4.88 111.52-4.48 111.36-3.6 110.88-4.08 110.56-4.56 110.24-4.96 110-5.52 110.08-5.92 110.4-9.36 111.04-12.64 114-14.56 114.72-15.12 115.2-15.92 116-16.4 116.48-16.8 117.2-16.88 117.92-17.04 118.16-17.04 118.48-16.72 118.96-16.48 118.8-16.16 118.72-15.84 118.56-15.68ZM120.48-14.16C119.36-12.8 117.92-9.84 117.04-8.16 116.96-8.16 116.96-8.08 116.88-8.08 116.8-8.08 116.64-8.16 116.64-8.24 116.56-8.32 116.56-8.48 116.64-8.56 117.28-9.36 118.08-10.72 118.72-12.24 119.04-13.12 119.52-13.84 119.92-14.4 120-14.56 120.24-14.56 120.32-14.64 120.4-14.48 120.48-14.24 120.48-14.16ZM163.68-16.64C160.8-11.6 154.8-1.52 153.68-2.08 152.48-2.64 153.44-5.84 154.8-13.68 155.6-18.56 158.16-20.08 155.2-21.2 151.84-22.4 151.12-20.96 150.24-17.84 149.6-15.6 149.76-15.76 148.72-13.6 145.84-8.56 142.64-2.96 141.52-3.52 140.32-4.16 140.4-4.96 141.76-12.72 142.56-17.68 145.12-19.12 142.16-20.24 138.8-21.52 138.08-20.08 137.2-16.88 135.6-11.04 134.72-6.72 137.36-1.2 138.24 0.56 139.6 0.72 141.04 0.16 144.64-1.36 146.88-6.24 149.28-11.36 148.88-7.44 148.96-3.68 150.16-1.2 151.04 0.56 152.4 0.72 153.84 0.16 158.08-1.6 161.12-10.08 164.48-16.4 164.4-17.04 164.4-17.28 163.68-16.64ZM139.92-14.16C139.68-13.04 138.24-11.04 138.64-7.36 138.72-6.8 138.48-6.72 138.4-6.8 137.12-8.08 138.32-11.68 139.04-13.2 139.2-13.6 140-14.96 139.92-14.16ZM185.04-16.88C181.12-13.68 179.04-10.4 175.92-7.36 157.84 10.32 166.16-17.76 174.08-20.48 174.32-20.16 174.48-19.76 174.64-19.44L175.28-19.44C176.08-19.04 176.88-19.04 177.36-19.84 177.84-20.64 177.68-21.52 177.2-22.48 173.68-29.44 167.6-23.84 165.28-20.16 162.32-15.52 161.68-11.92 162.32-5.92 162.8-1.04 166.24 3.6 171.36-0.24 176.16-3.84 183.92-14.24 185.52-16 185.92-16.48 186-16.24 185.04-16.88ZM167.68-20.88C167.2-19.6 166-18.56 165.52-17.36 165.36-18.88 167.2-20.8 167.68-20.88ZM199.28-16.48C196.24-12.96 193.12-5.28 189.68-1.68 187.6 0.48 186.88-0.4 186.88-2.64 186.8-7.12 189.76-18.24 191.92-26.24L192.56-26.08C196.08-25.36 200.24-24.72 202.24-25.84 202-26.56 201.12-28.48 200.8-28.08 200.24-27.36 196.48-27.84 192.48-28.56 193.04-30.56 193.44-32.16 193.68-33.36 194.24-35.68 192.72-36 190-36.48 189.28-36.64 188.08-36 187.92-35.36 187.6-33.92 187.04-32 186.4-29.76 183.52-30.32 175.92-31.2 177.52-25.76L177.76-25.28C178-24.8 178.8-24.16 178.96-24.4 179.12-25.12 177.92-26 179.04-26.88 180.8-28.24 182.08-28.08 185.76-27.44 184.96-24.48 184.08-20.96 183.28-17.28L182.56-12.72C182.24-10.56 181.84-7.36 182.08-4.64 182.56 0.48 184.4 2.72 186 2.96 190.72 3.84 198-12.16 200-15.68 200.24-16.16 200.32-15.92 199.28-16.48ZM193.28-27.36L199.28-26.56C197.36-26.72 192.16-27.28 192.16-27.28 192.08-27.28 192.08-27.28 192-27.36 192.08-27.52 193.12-27.28 193.28-27.36ZM216.16-17.44C214.8-16 213.6-14.48 212.4-12.88L208.56-8.24C199.28 3.76 200.32-0.96 203.68-12.64 204.72-16.4 206.88-17.84 203.28-19.28 199.92-20.56 199.2-19.12 198.48-16.4 197.12-11.36 195.28-4.4 198.16 0.32 199.76 2.8 202.72 1.6 205.04-0.64 209.44-4.72 215.52-14.56 216.8-16.72 217.04-17.2 217.2-16.96 216.16-17.44ZM204.72-22.16C205.6-23.84 206.16-24.24 207.12-25.68 208.48-27.76 207.6-29.44 205.36-29.68L204.96-29.6C203.76-29.12 203.36-23.28 203.28-22 203.2-20.72 204.32-21.44 204.72-22.16ZM200.88-13.76C200.72-12.8 198.56-8.08 199.12-4.96 199.28-4.48 199.04-4.4 198.96-4.48 197.6-5.52 199.52-11.68 200.08-12.96 200.24-13.28 200.96-14.48 200.88-13.76ZM251.84-0.64C252.4-5.44 253.6-8.56 255.12-12.88 256.4-16.48 259.44-21.92 259.36-25.76 259.36-28.32 256.88-30.24 254.48-30.08 251.44-29.76 245.12-21.2 243.28-18.64 242.8-17.92 242.16-16.32 241.28-16.56 249.36-36.56 229.28-22.08 225.84-21.92 224.08-21.84 224-21.6 224.32-22.4 224.96-24.24 220.88-27.44 217.68-22.96 214.4-18.24 212.64-12.24 213.68-6 214.24-3.2 217.12 2.16 220.64 0.96 225.2-1.04 227.6-6.56 228.72-11.2 229.44-14.16 229.68-15.44 228.64-18.56 230.96-19.92 232.56-20.4 235.04-21.36 236.96-22.08 237.6-22.72 236.48-20.96 234.48-17.52 233.92-13.36 233.12-9.44 232.08-4.08 234.64-1.84 238.8-5.36 239.04-5.6 240.32-7.28 240.32-7.28 241.84-9.36 243.44-11.36 245.04-13.44 247.2-16.32 248.96-19.44 251.12-22.24 252.8-24.56 252.08-23.28 251.68-21.6 250.16-15.52 247.6-7.84 247.76-1.44 248 1.52 249.04 4.24 252.08 5.92 254.08 7.04 256.64 3.76 255.12 2.24 252.24 4.08 251.68 1.36 251.84-0.64ZM219.12-3.04C218-1.36 216.88-2.8 216.8-3.92 216.8-4.72 216.72-5.44 216.8-6.16 216.88-10.8 219.68-17.92 223.04-20.8 224.48-19.76 224.88-18.72 224.96-17.04 225.2-11.68 221.68-7.04 219.12-3.04ZM223.04-4.48L222.88-4.56C223.2-5.76 224.32-8.32 224.88-9.52 226.32-12.8 226.24-13.2 226.88-16.64 227.12-17.68 226.8-17.84 227.44-17.68 229.68-17.12 224.32-5.36 223.04-4.48ZM244.64-16C243.76-14.8 241.36-10.8 240.32-10.24 239.68-9.92 242.08-13.04 242.24-13.2 249.28-22.96 257.28-33.04 244.64-16ZM249.28-3.12L249.2-2.72C249.28-5.2 250.16-10 250.88-12.4 251.52-14.56 253.76-21.12 252.08-15.04 250.88-10.88 250.16-7.44 249.28-3.12ZM234.72-8.64L234.4-8.88 235.28-12C235.36-12.32 235.44-13.2 235.6-13.36 236.24-12.64 234.96-9.44 234.72-8.64Z" transform="translate(7.202885627746582, 36.50486755371094)"/></g> <!----> <!----> <!----> <!----> <!----> <!----> <!----></g></g><g data-gra="path-name" fill-rule="" class="tp-name" transform="translate(0,0)" fill="#fff"><g transform="scale(1)"><g><path d="M6.32-13.92C6-13.84 5.12-13.28 4.88-13.28 3.92-13.2 3.92-14 4.24-14.96 6.56-22.32 9.76-17.28 11.92-18.64 12.96-19.28 12.96-22.64 12.16-23.44 9.92-25.92 2.32-21.92 0.96-19.28-1.84-13.84 1.6-13.6 2.64-11.76 1.6-11.04 0.24-9.68-0.56-8.88-2.08-7.36-3.12-5.76-4.48-4.16-5.68-2.72-7.28 1.44-7.2 3.12-7.12 4.4-5.36 8.16-2.96 8.48 0.64 8.96 13.28-3.44 7.28-11.68 8.8-12.96 16.48-14.72 18.32-14.8 18.64-14.8 18.72-15.84 18.88-16.08 15.12-15.92 11.28-15.68 6.32-13.92ZM-0.88 3.84C0.08 2.8 1.36 1.44 2.72-0.16 1.92 2.4 0.56 3.68-0.88 3.84ZM5.04-7.44C4.08-5.76 3.04-4.16 2-2.56 1.28-1.44 0.48-0.48-0.32 0.56-0.88 1.2-2.32 4.08-3.28 3.6-3.68 0.24 1.28-7.52 4.88-9.68 5.84-8.96 5.44-8.16 5.04-7.44ZM35.28-20.24C34.72-22.32 31.92-22.88 29.6-23.44 24.96-24.64 24-18.24 22.72-14.72 22.72-15.04 22.72-15.28 22.64-15.6L23.6-20.64 23.52-21.36C22.56-22.88 18.16-27.52 17.76-22.24 16.56-16.24 16.96-12.48 15.28-4.56 15.28-4.48 14.48 2.16 14.48 2.24L14.4 2.72C14.32 2.96 14.24 3.2 14.24 3.36 13.04 8.24 12.56 12 11.84 13.36 11.76 13.36 11.6 13.28 11.44 13.12 10.88 12.48 8.32 9.76 5.6 11.92L5.36 12.24C5.12 12.64 5.12 13.52 5.44 13.68 6.16 13.68 6.08 12.24 7.68 13.12 10.72 14.96 9.28 15.2 11.76 16.8 12.48 16.8 13.28 16.56 14.08 15.76 17.12 13.04 19.44 4.8 21.2-3.04L22-2.8C30.8 0.48 37.84-11.44 35.28-20.24ZM28.4-9.52C27.68-8.8 27.84-8.4 27.12-7.68 26.64-7.12 25.44-6.16 24.8-5.84 24.56-5.68 22.4-5.6 21.92-5.68L22.16-6.64C23.84-10.48 24.88-14.56 26.56-18.4 26.72-18.88 27.92-20.32 28-20.72 28-21.6 29.76-20.48 30.24-20.16 30.56-19.84 30.96-19.44 30.96-19.04 31.12-15.76 31.04-12.4 28.4-9.52ZM15.44 10.32C15.28 10.4 15.12 10.24 15.44 9.76 16.32 8.24 15.84 7.12 16.32 4.4L16.96 4.56C16.32 7.92 16.4 9.92 15.44 10.32ZM23.76-14.96C24.64-16.64 24.4-16.64 25.04-18.48 25.04-18.56 25.12-18.56 25.12-18.64L25.44-18.64C25.44-18.56 25.52-18.4 25.44-18.32 25.44-18.24 25.36-18.16 25.36-18.08 25.36-18 25.28-17.84 25.2-17.36 24.96-16.48 24.56-15.6 24.32-14.88L23.92-14.56C23.84-14.72 23.68-14.88 23.76-14.96ZM9.68 13.92C9.52 13.44 9.28 13.04 8.96 12.64 8.96 12.56 9.04 12.32 9.04 12.16 9.2 12.24 9.2 12.48 9.28 12.56 9.6 12.96 9.76 13.36 9.92 13.68ZM18.64-8C18.64-8.08 18.64-8.16 18.72-8.24 18.8-8.72 18.96-8.4 19.04-8ZM56.4-17.44C55.04-16 53.84-14.48 52.64-12.88L48.8-8.24C39.52 3.76 40.56-0.96 43.92-12.64 44.96-16.4 47.12-17.84 43.52-19.28 40.16-20.56 39.44-19.12 38.72-16.4 37.36-11.36 35.52-4.4 38.4 0.32 40 2.8 42.96 1.6 45.28-0.64 49.68-4.72 55.76-14.56 57.04-16.72 57.28-17.2 57.44-16.96 56.4-17.44ZM44.96-22.16C45.84-23.84 46.4-24.24 47.36-25.68 48.72-27.76 47.84-29.44 45.6-29.68L45.2-29.6C44-29.12 43.6-23.28 43.52-22 43.44-20.72 44.56-21.44 44.96-22.16ZM41.12-13.76C40.96-12.8 38.8-8.08 39.36-4.96 39.52-4.48 39.28-4.4 39.2-4.48 37.84-5.52 39.76-11.68 40.32-12.96 40.48-13.28 41.2-14.48 41.12-13.76ZM76.56-16.88C72.64-13.68 70.56-10.4 67.44-7.36 49.36 10.32 57.68-17.76 65.6-20.48 65.84-20.16 66-19.76 66.16-19.44L66.8-19.44C67.6-19.04 68.4-19.04 68.88-19.84 69.36-20.64 69.2-21.52 68.72-22.48 65.2-29.44 59.12-23.84 56.8-20.16 53.84-15.52 53.2-11.92 53.84-5.92 54.32-1.04 57.76 3.6 62.88-0.24 67.68-3.84 75.44-14.24 77.04-16 77.44-16.48 77.52-16.24 76.56-16.88ZM59.2-20.88C58.72-19.6 57.52-18.56 57.04-17.36 56.88-18.88 58.72-20.8 59.2-20.88ZM98.64-17.12L97.92-16.56C94-12.88 90.96-9.36 86.08-5.84 84.8-4.48 82.72-4.08 81.04-3.6 78.56-2.88 76.24-3.12 76.4-6.56 76.48-6.96 76.32-7.28 76.4-7.68 76.64-8.8 76.48-10.16 77.28-11.2L78.8-10.8C82.72-9.6 93.12-21.2 86.24-25.6 84.08-26.96 81.92-26.88 80.16-25.04 79.36-24.24 78.56-23.28 78-22.24 76.8-20.16 75.76-18 74.64-15.84L73.76-12.4C73.76-12.08 73.76-11.68 73.68-11.36 73.28-9.12 73.44-6.96 74-4.72 75.04-1.28 78.8 1.76 83.28 0.16 85.28-0.56 86.88-1.84 88.32-3.28 90.72-5.6 92.88-8.32 95.04-10.96 96.24-12.4 97.68-13.84 98.72-15.36 99.12-15.92 99.2-16.16 99.28-16.32 99.44-16.48 99.28-16.64 98.64-17.12ZM84.24-23.2C84.4-20.56 81.52-16.48 78.56-15.36 79.6-18.32 82.32-22.08 84.24-23.2ZM88.08-4.8C91.12-8.08 93.12-10.96 96.4-14.24 93.44-10.88 91.76-7.44 88.08-4.8ZM138.4-17.2C135.12-13.68 131.76-5.92 128.16-2.4 125.92-0.24 125.28-1.12 125.36-3.36 125.52-8.16 129.2-19.04 129.28-19.28 129.44-19.92 128.4-20.4 127.68-20.88 124.56-22.64 123.6-20.72 122.88-18L122.8-17.76C122.16-18.08 121.52-18.64 121.04-19.04 118.64-21.12 113.44-21.76 112-19.44L111.2-18.24C108.64-14.64 106.56-11.68 107.04-6.48 107.28-4.16 108.56-2.4 110.56-0.96 111.36-0.4 112.48-0.16 113.44 0 115.52 0.4 119.12-8.4 120.24-9.92 120.32-9.92 120.48-10.24 120.8-10.72 120.08-7.52 119.92-4.24 121.52-1.6 123.12 0.96 126.64 2.64 128.96 0.48 133.28-3.6 137.76-14.24 139.04-16.4 139.28-16.88 139.44-16.64 138.4-17.2ZM112.08-5.68C111.84-5.28 111.6-4.88 111.52-4.48 111.36-3.6 110.88-4.08 110.56-4.56 110.24-4.96 110-5.52 110.08-5.92 110.4-9.36 111.04-12.64 114-14.56 114.72-15.12 115.2-15.92 116-16.4 116.48-16.8 117.2-16.88 117.92-17.04 118.16-17.04 118.48-16.72 118.96-16.48 118.8-16.16 118.72-15.84 118.56-15.68ZM120.48-14.16C119.36-12.8 117.92-9.84 117.04-8.16 116.96-8.16 116.96-8.08 116.88-8.08 116.8-8.08 116.64-8.16 116.64-8.24 116.56-8.32 116.56-8.48 116.64-8.56 117.28-9.36 118.08-10.72 118.72-12.24 119.04-13.12 119.52-13.84 119.92-14.4 120-14.56 120.24-14.56 120.32-14.64 120.4-14.48 120.48-14.24 120.48-14.16ZM163.68-16.64C160.8-11.6 154.8-1.52 153.68-2.08 152.48-2.64 153.44-5.84 154.8-13.68 155.6-18.56 158.16-20.08 155.2-21.2 151.84-22.4 151.12-20.96 150.24-17.84 149.6-15.6 149.76-15.76 148.72-13.6 145.84-8.56 142.64-2.96 141.52-3.52 140.32-4.16 140.4-4.96 141.76-12.72 142.56-17.68 145.12-19.12 142.16-20.24 138.8-21.52 138.08-20.08 137.2-16.88 135.6-11.04 134.72-6.72 137.36-1.2 138.24 0.56 139.6 0.72 141.04 0.16 144.64-1.36 146.88-6.24 149.28-11.36 148.88-7.44 148.96-3.68 150.16-1.2 151.04 0.56 152.4 0.72 153.84 0.16 158.08-1.6 161.12-10.08 164.48-16.4 164.4-17.04 164.4-17.28 163.68-16.64ZM139.92-14.16C139.68-13.04 138.24-11.04 138.64-7.36 138.72-6.8 138.48-6.72 138.4-6.8 137.12-8.08 138.32-11.68 139.04-13.2 139.2-13.6 140-14.96 139.92-14.16ZM185.04-16.88C181.12-13.68 179.04-10.4 175.92-7.36 157.84 10.32 166.16-17.76 174.08-20.48 174.32-20.16 174.48-19.76 174.64-19.44L175.28-19.44C176.08-19.04 176.88-19.04 177.36-19.84 177.84-20.64 177.68-21.52 177.2-22.48 173.68-29.44 167.6-23.84 165.28-20.16 162.32-15.52 161.68-11.92 162.32-5.92 162.8-1.04 166.24 3.6 171.36-0.24 176.16-3.84 183.92-14.24 185.52-16 185.92-16.48 186-16.24 185.04-16.88ZM167.68-20.88C167.2-19.6 166-18.56 165.52-17.36 165.36-18.88 167.2-20.8 167.68-20.88ZM199.28-16.48C196.24-12.96 193.12-5.28 189.68-1.68 187.6 0.48 186.88-0.4 186.88-2.64 186.8-7.12 189.76-18.24 191.92-26.24L192.56-26.08C196.08-25.36 200.24-24.72 202.24-25.84 202-26.56 201.12-28.48 200.8-28.08 200.24-27.36 196.48-27.84 192.48-28.56 193.04-30.56 193.44-32.16 193.68-33.36 194.24-35.68 192.72-36 190-36.48 189.28-36.64 188.08-36 187.92-35.36 187.6-33.92 187.04-32 186.4-29.76 183.52-30.32 175.92-31.2 177.52-25.76L177.76-25.28C178-24.8 178.8-24.16 178.96-24.4 179.12-25.12 177.92-26 179.04-26.88 180.8-28.24 182.08-28.08 185.76-27.44 184.96-24.48 184.08-20.96 183.28-17.28L182.56-12.72C182.24-10.56 181.84-7.36 182.08-4.64 182.56 0.48 184.4 2.72 186 2.96 190.72 3.84 198-12.16 200-15.68 200.24-16.16 200.32-15.92 199.28-16.48ZM193.28-27.36L199.28-26.56C197.36-26.72 192.16-27.28 192.16-27.28 192.08-27.28 192.08-27.28 192-27.36 192.08-27.52 193.12-27.28 193.28-27.36ZM216.16-17.44C214.8-16 213.6-14.48 212.4-12.88L208.56-8.24C199.28 3.76 200.32-0.96 203.68-12.64 204.72-16.4 206.88-17.84 203.28-19.28 199.92-20.56 199.2-19.12 198.48-16.4 197.12-11.36 195.28-4.4 198.16 0.32 199.76 2.8 202.72 1.6 205.04-0.64 209.44-4.72 215.52-14.56 216.8-16.72 217.04-17.2 217.2-16.96 216.16-17.44ZM204.72-22.16C205.6-23.84 206.16-24.24 207.12-25.68 208.48-27.76 207.6-29.44 205.36-29.68L204.96-29.6C203.76-29.12 203.36-23.28 203.28-22 203.2-20.72 204.32-21.44 204.72-22.16ZM200.88-13.76C200.72-12.8 198.56-8.08 199.12-4.96 199.28-4.48 199.04-4.4 198.96-4.48 197.6-5.52 199.52-11.68 200.08-12.96 200.24-13.28 200.96-14.48 200.88-13.76ZM251.84-0.64C252.4-5.44 253.6-8.56 255.12-12.88 256.4-16.48 259.44-21.92 259.36-25.76 259.36-28.32 256.88-30.24 254.48-30.08 251.44-29.76 245.12-21.2 243.28-18.64 242.8-17.92 242.16-16.32 241.28-16.56 249.36-36.56 229.28-22.08 225.84-21.92 224.08-21.84 224-21.6 224.32-22.4 224.96-24.24 220.88-27.44 217.68-22.96 214.4-18.24 212.64-12.24 213.68-6 214.24-3.2 217.12 2.16 220.64 0.96 225.2-1.04 227.6-6.56 228.72-11.2 229.44-14.16 229.68-15.44 228.64-18.56 230.96-19.92 232.56-20.4 235.04-21.36 236.96-22.08 237.6-22.72 236.48-20.96 234.48-17.52 233.92-13.36 233.12-9.44 232.08-4.08 234.64-1.84 238.8-5.36 239.04-5.6 240.32-7.28 240.32-7.28 241.84-9.36 243.44-11.36 245.04-13.44 247.2-16.32 248.96-19.44 251.12-22.24 252.8-24.56 252.08-23.28 251.68-21.6 250.16-15.52 247.6-7.84 247.76-1.44 248 1.52 249.04 4.24 252.08 5.92 254.08 7.04 256.64 3.76 255.12 2.24 252.24 4.08 251.68 1.36 251.84-0.64ZM219.12-3.04C218-1.36 216.88-2.8 216.8-3.92 216.8-4.72 216.72-5.44 216.8-6.16 216.88-10.8 219.68-17.92 223.04-20.8 224.48-19.76 224.88-18.72 224.96-17.04 225.2-11.68 221.68-7.04 219.12-3.04ZM223.04-4.48L222.88-4.56C223.2-5.76 224.32-8.32 224.88-9.52 226.32-12.8 226.24-13.2 226.88-16.64 227.12-17.68 226.8-17.84 227.44-17.68 229.68-17.12 224.32-5.36 223.04-4.48ZM244.64-16C243.76-14.8 241.36-10.8 240.32-10.24 239.68-9.92 242.08-13.04 242.24-13.2 249.28-22.96 257.28-33.04 244.64-16ZM249.28-3.12L249.2-2.72C249.28-5.2 250.16-10 250.88-12.4 251.52-14.56 253.76-21.12 252.08-15.04 250.88-10.88 250.16-7.44 249.28-3.12ZM234.72-8.64L234.4-8.88 235.28-12C235.36-12.32 235.44-13.2 235.6-13.36 236.24-12.64 234.96-9.44 234.72-8.64Z" transform="translate(7.202885627746582, 36.50486755371094)"/></g> <!----> <!----> <!----> <!----> <!----> <!----> <!----></g></g></g></mask><defs v-gra="od"/></svg>